<svg width="40" height="40" viewBox="0 0 40 40" fill="none" xmlns="http://www.w3.org/2000/svg">
<path d="M20 8.75C22.0625 8.75 23.75 10.4375 23.75 12.5C23.75 14.5625 22.0625 16.25 20 16.25C17.9375 16.25 16.25 14.5625 16.25 12.5C16.25 10.4375 17.9375 8.75 20 8.75ZM20 25.625C25.0625 25.625 30.875 28.0438 31.25 29.375V31.25H8.75V29.3938C9.125 28.0438 14.9375 25.625 20 25.625ZM20 5C15.8562 5 12.5 8.35625 12.5 12.5C12.5 16.6438 15.8562 20 20 20C24.1437 20 27.5 16.6438 27.5 12.5C27.5 8.35625 24.1437 5 20 5ZM20 21.875C14.9937 21.875 5 24.3875 5 29.375V35H35V29.375C35 24.3875 25.0063 21.875 20 21.875Z" fill="white"/>
</svg>
