<svg width="35" height="32" viewBox="0 0 35 32" fill="none" xmlns="http://www.w3.org/2000/svg">
<path d="M4.375 12V20H10.2083L17.5 26.6666V5.33331L10.2083 12H4.375ZM14.5833 11.7733V20.2266L11.4188 17.3333H7.29167V14.6666H11.4188L14.5833 11.7733ZM24.0625 16C24.0625 13.64 22.575 11.6133 20.4167 10.6266V21.36C22.575 20.3866 24.0625 18.36 24.0625 16ZM20.4167 4.30664V7.05331C24.6313 8.19997 27.7083 11.7733 27.7083 16C27.7083 20.2266 24.6313 23.8 20.4167 24.9466V27.6933C26.2646 26.48 30.625 21.7066 30.625 16C30.625 10.2933 26.2646 5.51997 20.4167 4.30664Z" fill="black"/>
</svg>
