<svg width="30" height="30" viewBox="0 0 30 30" fill="none" xmlns="http://www.w3.org/2000/svg">
<path d="M15 3.75C17.0625 3.75 18.75 5.4375 18.75 7.5C18.75 9.5625 17.0625 11.25 15 11.25C12.9375 11.25 11.25 9.5625 11.25 7.5C11.25 5.4375 12.9375 3.75 15 3.75ZM15 20.625C20.0625 20.625 25.875 23.0438 26.25 24.375V26.25H3.75V24.3938C4.125 23.0438 9.9375 20.625 15 20.625ZM15 0C10.8562 0 7.5 3.35625 7.5 7.5C7.5 11.6438 10.8562 15 15 15C19.1437 15 22.5 11.6438 22.5 7.5C22.5 3.35625 19.1437 0 15 0ZM15 16.875C9.99375 16.875 0 19.3875 0 24.375V30H30V24.375C30 19.3875 20.0063 16.875 15 16.875Z" fill="white"/>
</svg>
